<svg width="936" height="275" viewBox="0 0 936 275" fill="none" xmlns="http://www.w3.org/2000/svg">
<rect width="936" height="275" fill="#010C00"/>
<path d="M167 72.5H182.3V119.16L221.89 72.5H259.68L216.14 121.96L261.14 187.52H222.87L194 144.8L182.34 157.8V187.5H150.41V89.08C150.41 86.9018 150.839 84.745 151.673 82.7328C152.507 80.7206 153.729 78.8924 155.27 77.3526C156.81 75.8129 158.639 74.5918 160.652 73.7592C162.665 72.9266 164.822 72.4987 167 72.5Z" fill="url(#paint0_linear_147_2)"/>
<path d="M142.27 129.35V129.68C142.27 162.87 118.12 187.52 76.71 187.52H33V131.21C34.93 146.37 48.31 158.27 64.88 159.21V159.28H77.88C96.94 159.28 109.59 148.76 109.59 130.19V129.86C109.59 111.46 96.94 100.78 77.88 100.78H33V89.08C33.0027 84.6818 34.7517 80.4646 37.8626 77.3556C40.9736 74.2465 45.1918 72.5 49.59 72.5H77.37C118.45 72.5 142.27 96.16 142.27 129.35Z" fill="url(#paint1_linear_147_2)"/>
<path d="M266.67 164.5L309.08 132.12C319.6 123.82 323.65 118.5 323.65 111.68C323.65 104.55 318.65 100.18 311.02 100.18C303.39 100.18 297.43 104.55 288.52 114.75L267.32 97.11C279.46 81.41 291.44 72.83 313.45 72.83C338.22 72.83 355.21 87.56 355.21 108.92V109.25C355.21 127.38 345.83 136.77 328.99 148.91L309.57 162.5H356.35V188.08H266.67V164.5Z" fill="url(#paint2_linear_147_2)"/>
<path d="M418.75 164.1H363.87L362.87 141.93L417.45 72H449.18V140.63H463.58V164.1H449.18V186.1H418.75V164.1ZM418.75 140.8V108.26L391.75 140.8H418.75Z" fill="url(#paint3_linear_147_2)"/>
<path d="M491.743 186.798C480.343 186.798 471.166 178.077 471.166 166.164V166.05C471.166 154.422 480.115 145.302 492.199 145.302C500.35 145.302 505.594 148.722 509.128 153.624L500.806 160.065C498.526 157.215 495.904 155.391 492.085 155.391C486.499 155.391 482.566 160.122 482.566 165.936V166.05C482.566 172.035 486.499 176.709 492.085 176.709C496.246 176.709 498.697 174.771 501.091 171.864L509.413 177.792C505.651 182.979 500.578 186.798 491.743 186.798ZM533.121 186.798C520.809 186.798 511.689 177.621 511.689 166.164V166.05C511.689 154.593 520.923 145.302 533.235 145.302C545.547 145.302 554.667 154.479 554.667 165.936V166.05C554.667 177.507 545.433 186.798 533.121 186.798ZM533.235 176.823C539.334 176.823 543.381 171.921 543.381 166.164V166.05C543.381 160.293 539.22 155.277 533.121 155.277C527.079 155.277 523.032 160.179 523.032 165.936V166.05C523.032 171.807 527.193 176.823 533.235 176.823ZM560.428 186V146.1H570.745L587.161 167.19V146.1H598.105V186H588.415L571.372 164.112V186H560.428ZM620.856 186.684C613.788 186.684 607.062 184.461 602.16 180.072L608.316 172.719C612.249 175.854 616.638 177.507 621.255 177.507C624.219 177.507 625.815 176.481 625.815 174.771V174.657C625.815 173.004 624.504 172.092 619.089 170.838C610.596 168.9 604.041 166.506 604.041 158.298V158.184C604.041 150.774 609.912 145.416 619.488 145.416C626.271 145.416 631.572 147.24 635.904 150.717L630.375 158.526C626.727 155.961 622.737 154.593 619.203 154.593C616.524 154.593 615.213 155.733 615.213 157.158V157.272C615.213 159.096 616.581 159.894 622.11 161.148C631.287 163.143 636.987 166.107 636.987 173.574V173.688C636.987 181.839 630.546 186.684 620.856 186.684ZM662.429 186.798C650.117 186.798 640.997 177.621 640.997 166.164V166.05C640.997 154.593 650.231 145.302 662.543 145.302C674.855 145.302 683.975 154.479 683.975 165.936V166.05C683.975 177.507 674.741 186.798 662.429 186.798ZM662.543 176.823C668.642 176.823 672.689 171.921 672.689 166.164V166.05C672.689 160.293 668.528 155.277 662.429 155.277C656.387 155.277 652.34 160.179 652.34 165.936V166.05C652.34 171.807 656.501 176.823 662.543 176.823ZM689.735 186V146.1H708.602C714.701 146.1 718.919 147.696 721.598 150.432C723.935 152.712 725.132 155.79 725.132 159.723V159.837C725.132 165.936 721.883 169.983 716.924 172.092L726.443 186H713.675L705.638 173.916H700.793V186H689.735ZM700.793 165.252H708.089C711.851 165.252 714.017 163.428 714.017 160.521V160.407C714.017 157.272 711.737 155.676 708.032 155.676H700.793V165.252ZM740.451 186V155.79H728.481V146.1H763.479V155.79H751.509V186H740.451ZM768.561 186V146.1H779.676V186H768.561ZM804.935 186.741C793.592 186.741 786.467 180.984 786.467 168.501V146.1H797.696V168.273C797.696 174.03 800.603 176.766 805.049 176.766C809.495 176.766 812.402 174.144 812.402 168.558V146.1H823.631V168.216C823.631 181.098 816.278 186.741 804.935 186.741ZM830.176 186V146.1H841.861L851.38 161.547L860.899 146.1H872.584V186H861.583V163.086L851.38 178.704H851.152L841.006 163.2V186H830.176Z" fill="white"/>
<circle cx="891.5" cy="173.5" r="12.5" fill="url(#paint4_linear_147_2)"/>
<defs>
<linearGradient id="paint0_linear_147_2" x1="2.40001" y1="-72.63" x2="472.25" y2="397.21" gradientUnits="userSpaceOnUse">
<stop stop-color="#8CDE62"/>
<stop offset="0.54" stop-color="#46DF8A"/>
<stop offset="1" stop-color="#12E1A8"/>
</linearGradient>
<linearGradient id="paint1_linear_147_2" x1="-65.01" y1="-6.16" x2="404.84" y2="463.68" gradientUnits="userSpaceOnUse">
<stop stop-color="#8CDE62"/>
<stop offset="0.54" stop-color="#46DF8A"/>
<stop offset="1" stop-color="#12E1A8"/>
</linearGradient>
<linearGradient id="paint2_linear_147_2" x1="50.35" y1="-119.39" x2="519.87" y2="350.13" gradientUnits="userSpaceOnUse">
<stop stop-color="#8CDE62"/>
<stop offset="0.54" stop-color="#46DF8A"/>
<stop offset="1" stop-color="#12E1A8"/>
</linearGradient>
<linearGradient id="paint3_linear_147_2" x1="110.4" y1="-176.11" x2="578.24" y2="291.73" gradientUnits="userSpaceOnUse">
<stop stop-color="#8CDE62"/>
<stop offset="0.54" stop-color="#46DF8A"/>
<stop offset="1" stop-color="#12E1A8"/>
</linearGradient>
<linearGradient id="paint4_linear_147_2" x1="816.327" y1="106.638" x2="918.041" y2="221.874" gradientUnits="userSpaceOnUse">
<stop stop-color="#8CDE62"/>
<stop offset="0.54" stop-color="#46DF8A"/>
<stop offset="1" stop-color="#12E1A8"/>
</linearGradient>
</defs>
</svg>
